<?xml version="1.0" encoding="utf-8"?>
<!-- Generator: Adobe Illustrator 21.0.2, SVG Export Plug-In . SVG Version: 6.00 Build 0)  -->
<svg version="1.1" id="Layer_1" xmlns="http://www.w3.org/2000/svg" xmlns:xlink="http://www.w3.org/1999/xlink" x="0px" y="0px"
	 viewBox="0 0 327 216" style="enable-background:new 0 0 327 216;" xml:space="preserve">
<style type="text/css">
	.st0{enable-background:new    ;}
	.st1{fill:#FFFFFF;}
	.st2{fill:none;stroke:#FFFFFF;stroke-miterlimit:10;}
	.st3{fill:none;stroke:#FFFFFF;stroke-width:1.4297;stroke-miterlimit:10;}
</style>
<g>
	<g>
		<g class="st0">
			<path class="st1" d="M121.8,164c0.3-6.5,4-16.6,7.6-23.6c-1.7-0.3-3.5-0.4-5.3-0.5c-11.4,12.5-27.6,31.8-37.2,31.8
				c-4.3,0-11.6-4.7-11.4-11.2c0.4-12.1,24.5-22.1,43.3-22.1c1.1,0,2.3,0,3.4,0.1c5.6-5.4,11.8-11.6,15.2-15.4
				c2.1-2.4,3.9-4.6,4-5.6c0-0.3,0-0.6-0.4-0.9c0,0,0.1-0.1,0.2-0.1c1,0,2.2,0.9,3.4,2.1c1.1,1.2,2.4,3,1.9,3.8
				c-3.7,4.4-8,11.7-11.2,18.1c3.7,1.1,6.8,2.5,9.2,4.3c0.1,0.1,0,0.5-0.3,0.4c-3.1-1.7-6.2-2.9-9.4-3.6
				c-5.6,11.9-7.7,19.5-7.9,24.1c0,1.7,0,4.3,2.2,4.3c2,0,4.8-1.6,5.5-2.1c0.3-0.3,0.4,0,0.1,0.4c-0.8,1.1-3.1,3.5-4.7,3.5
				C124.7,171.5,121.7,166.9,121.8,164z M82.8,168.2c6.5,0,24-13.7,37.9-28.3c-22.3,0.8-41.4,14.8-41.7,23.9
				C78.9,166.2,80.2,168.2,82.8,168.2z M125.2,138.7c1.5,0.1,3.3,0.4,4.8,0.7c3.3-6.4,7.5-13.7,11-19.3
				C136.4,126.3,131,132.7,125.2,138.7z"/>
			<path class="st1" d="M138.8,157c0,0.1,0,0.2,0.2,0.2c0.9,0,8.2-6.1,14-11.9c0.3-0.3,0.9,0,0.6,0.3c-1,1.3-3.2,3.8-6.1,6.9
				c-3,3.1-8.2,8.1-9.5,8.1c-0.6,0-1.7-0.6-2.4-1.2c-1.1-0.9-2-2-1.9-2.8c0-0.2,0.1-0.5,0.2-0.7c0.9-2.4,4.9-8.3,8.7-13.6
				c4.4-6.1,10.2-13.7,12.1-17.3c0.9-1.8,1.4-3.3,0.7-3.7c0,0,1-0.2,2.1,0.6c1.7,1.3,2.6,3.1,2.5,4c0,0.1,0,0.2-0.1,0.3l-11.6,16.1
				C148,142.6,138.8,155.1,138.8,157z"/>
			<path class="st1" d="M151.3,157c0,0.1,0,0.2,0.2,0.2c0.9,0,8.2-6.1,14-11.9c0.3-0.3,0.9,0,0.6,0.3c-1,1.3-3.2,3.8-6.1,6.9
				c-3,3.1-8.2,8.1-9.5,8.1c-0.6,0-1.7-0.6-2.4-1.2c-1.1-0.9-2-2-1.9-2.8c0-0.2,0.1-0.5,0.2-0.7c0.9-2.4,4.9-8.3,8.7-13.6
				c4.4-6.1,10.2-13.7,12.1-17.3c0.9-1.8,1.4-3.3,0.7-3.7c0,0,1-0.2,2.1,0.6c1.7,1.3,2.6,3.1,2.5,4c0,0.1,0,0.2-0.1,0.3l-11.6,16.1
				C160.5,142.6,151.3,155.1,151.3,157z"/>
			<path class="st1" d="M184.6,143.5c1,0.9,1.7,2.5,1.6,2.9c0,0.1,0,0.1-0.1,0.2l-1.1,1.3c-3.9,4.4-6.2,8.3-6.3,9.1
				c0,0.1,0,0.2,0.2,0.2c0.9,0,8.4-6.2,14.2-12c0.3-0.3,0.8,0,0.6,0.4c-2.2,3-12.6,14-15.4,14.8c-0.1,0-0.2,0-0.2,0
				c-0.8,0-1.9-0.4-2.8-1.3c-1-0.9-2-2.3-1.9-3.3c0-0.1,0-0.3,0.1-0.4c0.3-0.8,1.9-3.1,5.4-7.4c-1.5,1.6-4,4.2-5.8,5.6
				c-4.5,3.9-8.1,6.7-9.7,6.7c-1.3,0-4.8-2.6-4.7-5c0.1-2.9,4.4-8.4,9.4-12.6c4.3-3.6,9.1-6.5,12.2-6.5c4.1,0,7.2,2.1,7.1,5
				C187.4,142,185.8,143,184.6,143.5z M181.9,142.3c0.3-0.1,1.5,0,2,0.5c0.4-0.4,0.6-1.4,0.8-2.5c0.1-1.1-0.3-1.8-1.2-1.8
				c-2.8,0-8.2,4.1-11.1,6.9c-5.1,4.7-9.3,10-9.3,11.6c0,0.1,0,0.3,0.4,0.3c1.6,0,18.2-11.2,18.7-14.6
				C182,142.6,182,142.4,181.9,142.3z"/>
			<path class="st1" d="M190.9,156.9c-0.9,1.6-1.2,2.6-1.1,2.8c0.3,0.3-0.1,0.4-0.5,0.4c-0.4-0.1-3.7-2.8-3.2-4.1
				c0.3-0.8,0.9-1.8,1.7-3.1l2.4-3.4c1.8-2.7,5-7.2,6.2-8.9c1.1-1.7,1.7-3.4,1-3.9c0.1,0,1-0.2,2.1,0.5c2,1.4,2.6,3,2.6,3.6
				c0,0.5-2,3-4.3,6.1c1.1-1.3,2.3-2.5,3.6-3.7c2.5-2.3,7.8-6.8,9.8-7.3c0.9-0.2,2.3,2.2,2.1,4.3c-0.1,0.6-0.4,2.3-1,2.9
				c0-0.4-0.1-0.9-0.3-1.3c-0.4-0.5-1.3-0.9-2.4-0.8c-2.6,0.3-5.3,1.4-8.6,4.2C196.2,149.2,192.8,153.5,190.9,156.9z"/>
			<path class="st1" d="M225.2,157c0,0.1,0,0.2,0.2,0.2c0.9,0,8.2-6.1,14.1-11.9c0.3-0.3,0.9,0,0.6,0.3c-1,1.3-3.2,3.8-6.1,6.9
				c-3,3.1-8.3,8.1-9.5,8.1c-0.6,0-1.7-0.6-2.5-1.1c-1.2-0.9-2.1-2.1-2-2.9c0-0.2,0.1-0.5,0.2-0.7c0.5-1.3,1.9-3.6,3.7-6.4l-2.3,2.2
				c-4.9,4.6-10.1,8.9-11.7,8.9c-1.3,0-4.7-2.7-4.8-4.8c0-0.9,0.4-2.1,1-3.3c3.1-5.8,12.9-15,18.9-15.9c0.4,0,0.5,0,0.5,0
				c4,0,5.4,1.7,5.6,2.8c3.9-5.5,8.3-11.3,9.9-14.4c1-1.8,1.4-3.3,0.7-3.7c0,0,0.9-0.2,2,0.5c1.6,1,2.8,3.2,2.7,4.1
				c0,0.1,0,0.2-0.1,0.3l-11.6,16.1C234.5,142.6,225.3,155.1,225.2,157z M209.5,156.9c0,0.1,0,0.3,0.3,0.3c1.4,0,11.9-6.4,16.7-12.3
				c0.9-1.3,3.2-4.5,3.3-5.4c0-0.5-0.6-0.9-1.1-0.9c-4.7,0-13.9,10.1-16.9,14.1C210,155.3,209.5,156.4,209.5,156.9z"/>
		</g>
	</g>
	<g>
		<g class="st0">
			<path class="st1" d="M96.1,111.7V97.6H81.4v14.1h-1.3V85.5h1.3v11h14.7v-11h1.3v26.2H96.1z"/>
		</g>
		<g class="st0">
			<path class="st2" d="M96.1,111.7V97.6H81.4v14.1h-1.3V85.5h1.3v11h14.7v-11h1.3v26.2H96.1z"/>
		</g>
		<g class="st0">
			<path class="st1" d="M107.6,111.7V85.5h16.9v1.1h-15.6v9.9h12.8v1.1h-12.8v13h15.6v1.1H107.6z"/>
		</g>
		<g class="st0">
			<path class="st2" d="M107.6,111.7V85.5h16.9v1.1h-15.6v9.9h12.8v1.1h-12.8v13h15.6v1.1H107.6z"/>
		</g>
		<g class="st0">
			<path class="st1" d="M142.4,84.8l11.4,26.7l-1.2,0.4l-3.1-7.3h-14.2l-3.1,7.3l-1.2-0.4L142.4,84.8z M135.8,103.5H149L142.4,88
				L135.8,103.5z"/>
		</g>
		<g class="st0">
			<path class="st2" d="M142.4,84.8l11.4,26.7l-1.2,0.4l-3.1-7.3h-14.2l-3.1,7.3l-1.2-0.4L142.4,84.8z M135.8,103.5H149L142.4,88
				L135.8,103.5z"/>
		</g>
		<g class="st0">
			<path class="st1" d="M164.8,111.7V86.6h-9.3v-1.1h19.8v1.1H166v25.1H164.8z"/>
		</g>
		<g class="st0">
			<path class="st2" d="M164.8,111.7V86.6h-9.3v-1.1h19.8v1.1H166v25.1H164.8z"/>
		</g>
		<g class="st0">
			<path class="st1" d="M199.1,111.7V97.6h-14.7v14.1h-1.3V85.5h1.3v11h14.7v-11h1.3v26.2H199.1z"/>
			<path class="st1" d="M210.3,111.7V85.5h16.9v1.1h-15.6v9.9h12.8v1.1h-12.8v13h15.6v1.1H210.3z"/>
			<path class="st1" d="M236.4,111.7V85.5c1.1-0.1,2.3-0.1,3.3-0.1c9.6,0,14.4,4.4,14.4,8.8c0,3.2-2.5,6.3-7.5,7.8l8.1,9.4l-1,0.7
				l-8.4-9.7c-1.6,0.4-3.5,0.6-5.6,0.6c-0.6,0-1.3,0-2-0.1v8.9h-1.3V111.7z M237.7,86.5v15.1c0.7,0,1.4,0.1,2,0.1
				c8.8,0,13.2-3.8,13.2-7.6s-4.4-7.6-13.2-7.6C239.1,86.5,238.4,86.5,237.7,86.5z"/>
		</g>
		<g class="st0">
			<path class="st2" d="M199.1,111.7V97.6h-14.7v14.1h-1.3V85.5h1.3v11h14.7v-11h1.3v26.2H199.1z"/>
			<path class="st2" d="M210.3,111.7V85.5h16.9v1.1h-15.6v9.9h12.8v1.1h-12.8v13h15.6v1.1H210.3z"/>
			<path class="st2" d="M236.4,111.7V85.5c1.1-0.1,2.3-0.1,3.3-0.1c9.6,0,14.4,4.4,14.4,8.8c0,3.2-2.5,6.3-7.5,7.8l8.1,9.4l-1,0.7
				l-8.4-9.7c-1.6,0.4-3.5,0.6-5.6,0.6c-0.6,0-1.3,0-2-0.1v8.9h-1.3V111.7z M237.7,86.5v15.1c0.7,0,1.4,0.1,2,0.1
				c8.8,0,13.2-3.8,13.2-7.6s-4.4-7.6-13.2-7.6C239.1,86.5,238.4,86.5,237.7,86.5z"/>
		</g>
	</g>
	<path class="st3" d="M208,45.6h84.9v146.7h-257V45.6h84.9"/>
	<g>
		<g>
			<path class="st1" d="M166.2,64.6c-0.3,0-0.7-0.1-0.9-0.4l-29-30.1l1.8-1.8l8.4,8.7l49-17.4c0.5-0.2,1.1,0,1.5,0.5
				c0.3,0.5,0.3,1.1,0,1.5l-29.8,38.5C167,64.4,166.6,64.6,166.2,64.6L166.2,64.6z M148.4,43l17.7,18.3l26.2-33.9L148.4,43z"/>
		</g>
		<g>
			<polygon class="st1" points="135.4,29.6 132.9,30.6 159.2,57.9 161.6,56.7 			"/>
		</g>
		<g>
			<polygon class="st1" points="140.9,27.3 138.4,28.4 168.7,59.8 171,58.6 			"/>
		</g>
		<g>
			<polygon class="st1" points="153.3,22.3 150.8,23.4 177,50.6 178.5,48.5 			"/>
		</g>
	</g>
</g>
</svg>
