<?xml version="1.0" encoding="utf-8"?>
<!-- Generator: Adobe Illustrator 21.0.2, SVG Export Plug-In . SVG Version: 6.00 Build 0)  -->
<svg version="1.1" id="Layer_1" xmlns="http://www.w3.org/2000/svg" xmlns:xlink="http://www.w3.org/1999/xlink" x="0px" y="0px"
	 viewBox="0 0 327 216" style="enable-background:new 0 0 327 216;" xml:space="preserve">
<style type="text/css">
	.st0{fill:#212121;}
	.st1{font-family:'InfiniteStroke-CondensedBolder';}
	.st2{font-size:58.2202px;}
	.st3{fill:#212121;stroke:#212121;stroke-miterlimit:10;}
	.st4{font-family:'Existence-Light';}
	.st5{font-size:42.5747px;}
	.st6{letter-spacing:4;}
	.st7{letter-spacing:2;}
	.st8{letter-spacing:-2;}
	.st9{fill:none;stroke:#212121;stroke-width:1.4297;stroke-miterlimit:10;}
</style>
<g>
	<g>
		<text transform="matrix(1 0 0 1 81.314 160.1085)" class="st0 st1 st2">Allard</text>
	</g>
	<g>
		<text transform="matrix(1 0 0 0.88 77.0975 111.6866)"><tspan x="0" y="0" class="st3 st4 st5 st6">H</tspan><tspan x="27.5" y="0" class="st3 st4 st5 st7">E</tspan><tspan x="51.8" y="0" class="st3 st4 st5 st8">A</tspan><tspan x="76.3" y="0" class="st3 st4 st5 st7">T</tspan><tspan x="103" y="0" class="st3 st4 st5 st6">HER</tspan></text>
	</g>
	<path class="st9" d="M208,45.6h84.9v146.7h-257V45.6h84.9"/>
	<g>
		<g>
			<path class="st0" d="M166.2,64.6c-0.3,0-0.7-0.1-0.9-0.4l-29-30.1l1.8-1.8l8.4,8.7l49-17.4c0.5-0.2,1.1,0,1.5,0.5
				c0.3,0.5,0.3,1.1,0,1.5l-29.8,38.5C167,64.4,166.6,64.6,166.2,64.6C166.2,64.6,166.2,64.6,166.2,64.6z M148.4,43l17.7,18.3
				l26.2-33.9L148.4,43z"/>
		</g>
		<g>
			<polygon class="st0" points="135.4,29.6 132.9,30.6 159.2,57.9 161.6,56.7 			"/>
		</g>
		<g>
			<polygon class="st0" points="140.9,27.3 138.4,28.4 168.7,59.8 171,58.6 			"/>
		</g>
		<g>
			<polygon class="st0" points="153.3,22.3 150.8,23.4 177,50.6 178.5,48.5 			"/>
		</g>
	</g>
</g>
</svg>
